<?xml version="1.0" encoding="UTF-8" standalone="no"?>
<!DOCTYPE svg PUBLIC "-//W3C//DTD SVG 1.1//EN"
 "http://www.w3.org/Graphics/SVG/1.1/DTD/svg11.dtd">
<!-- Generated by graphviz version 2.40.1 (20161225.0304)
 -->
<!-- Title: G Pages: 1 -->
<svg width="188pt" height="332pt"
 viewBox="0.00 0.00 188.00 332.00" xmlns="http://www.w3.org/2000/svg" xmlns:xlink="http://www.w3.org/1999/xlink">
<g id="graph0" class="graph" transform="scale(1 1) rotate(0) translate(4 328)">
<title>G</title>
<polygon fill="#ffffff" stroke="transparent" points="-4,4 -4,-328 184,-328 184,4 -4,4"/>
<!-- u -->
<g id="node1" class="node">
<title>u</title>
<ellipse fill="none" stroke="#000000" cx="90" cy="-18" rx="18" ry="18"/>
<text text-anchor="middle" x="90" y="-14.4" font-family="Helvetica,sans-Serif" font-size="12.00" fill="#000000">u</text>
</g>
<!-- w -->
<g id="node3" class="node">
<title>w</title>
<ellipse fill="none" stroke="#000000" cx="126" cy="-90" rx="18" ry="18"/>
<text text-anchor="middle" x="126" y="-86.4" font-family="Helvetica,sans-Serif" font-size="12.00" fill="#000000">w</text>
</g>
<!-- u&#45;&#45;w -->
<g id="edge2" class="edge">
<title>u&#45;&#45;w</title>
<path fill="none" stroke="#000000" stroke-width="2" d="M98.169,-34.3379C104.0606,-46.1212 111.9792,-61.9584 117.8634,-73.7267"/>
</g>
<!-- v -->
<g id="node2" class="node">
<title>v</title>
<ellipse fill="none" stroke="#000000" cx="18" cy="-90" rx="18" ry="18"/>
<text text-anchor="middle" x="18" y="-86.4" font-family="Helvetica,sans-Serif" font-size="12.00" fill="#000000">v</text>
</g>
<!-- v&#45;&#45;u -->
<g id="edge1" class="edge">
<title>v&#45;&#45;u</title>
<path fill="none" stroke="#000000" d="M30.8722,-77.1278C43.9775,-64.0225 64.1743,-43.8257 77.2393,-30.7607"/>
</g>
<!-- x -->
<g id="node4" class="node">
<title>x</title>
<ellipse fill="none" stroke="#000000" cx="162" cy="-162" rx="18" ry="18"/>
<text text-anchor="middle" x="162" y="-158.4" font-family="Helvetica,sans-Serif" font-size="12.00" fill="#000000">x</text>
</g>
<!-- w&#45;&#45;x -->
<g id="edge3" class="edge">
<title>w&#45;&#45;x</title>
<path fill="none" stroke="#000000" d="M134.169,-106.3379C140.0606,-118.1212 147.9792,-133.9584 153.8634,-145.7267"/>
</g>
<!-- y -->
<g id="node5" class="node">
<title>y</title>
<ellipse fill="none" stroke="#000000" cx="126" cy="-234" rx="18" ry="18"/>
<text text-anchor="middle" x="126" y="-230.4" font-family="Helvetica,sans-Serif" font-size="12.00" fill="#000000">y</text>
</g>
<!-- x&#45;&#45;y -->
<g id="edge4" class="edge">
<title>x&#45;&#45;y</title>
<path fill="none" stroke="#000000" stroke-width="2" d="M153.831,-178.3379C147.9394,-190.1212 140.0208,-205.9584 134.1366,-217.7267"/>
</g>
<!-- z -->
<g id="node6" class="node">
<title>z</title>
<ellipse fill="none" stroke="#000000" cx="162" cy="-306" rx="18" ry="18"/>
<text text-anchor="middle" x="162" y="-302.4" font-family="Helvetica,sans-Serif" font-size="12.00" fill="#000000">z</text>
</g>
<!-- y&#45;&#45;z -->
<g id="edge5" class="edge">
<title>y&#45;&#45;z</title>
<path fill="none" stroke="#000000" d="M134.169,-250.3379C140.0606,-262.1212 147.9792,-277.9584 153.8634,-289.7267"/>
</g>
</g>
</svg>
